<?xml version="1.0" encoding="UTF-8"?>
<svg xmlns="http://www.w3.org/2000/svg" xml:space="preserve" id="Layer_1" x="0" y="0" style="enable-background:new 0 0 115.5 116" version="1.1" viewBox="0 0 115.5 116">
  <style>.st0{fill:#c06536}</style>
  <path d="M57.83 16.26c23 0 41.71 18.72 41.71 41.72S80.83 99.7 57.83 99.7 16.11 80.98 16.11 57.98c0-23.01 18.72-41.72 41.72-41.72m0-11.92c-29.62 0-53.64 24.02-53.64 53.64s24.02 53.64 53.64 53.64 53.63-24.02 53.63-53.64-24-53.64-53.63-53.64z"></path>
  <path d="M67.87 52.18c3.2 5.54 1.3 12.62-4.24 15.83-5.54 3.2-12.63 1.3-15.83-4.25-3.2-5.53-1.3-12.62 4.24-15.82 5.54-3.19 12.62-1.3 15.83 4.24zM54.36 28.79c3.2 5.54 1.3 12.62-4.24 15.82-5.54 3.2-12.62 1.3-15.83-4.23-3.2-5.54-1.3-12.63 4.24-15.83 5.55-3.19 12.63-1.3 15.83 4.24zM30.82 46.39c6.4.01 11.59 5.19 11.59 11.59 0 6.39-5.19 11.57-11.58 11.58-6.4-.01-11.59-5.19-11.59-11.59-.01-6.4 5.19-11.57 11.58-11.58zM34.29 75.58c3.2-5.54 10.29-7.44 15.83-4.24 5.54 3.2 7.44 10.28 4.24 15.82-3.2 5.54-10.28 7.44-15.83 4.24-5.54-3.2-7.43-10.29-4.24-15.82zM61.31 87.16c-3.2-5.54-1.3-12.63 4.24-15.83 5.54-3.2 12.63-1.3 15.83 4.24 3.2 5.54 1.3 12.62-4.24 15.83-5.55 3.19-12.64 1.3-15.83-4.24zM84.84 69.56c-6.39 0-11.58-5.19-11.58-11.58 0-6.41 5.19-11.59 11.58-11.59 6.41 0 11.59 5.19 11.59 11.59 0 6.4-5.19 11.58-11.59 11.58zM81.37 40.38c-3.2 5.54-10.29 7.44-15.83 4.23-5.54-3.2-7.44-10.27-4.24-15.83 3.2-5.54 10.28-7.43 15.83-4.23 5.54 3.2 7.44 10.29 4.24 15.83z" class="st0"></path>
</svg>
