<?xml version="1.0" encoding="UTF-8"?>
<svg xmlns="http://www.w3.org/2000/svg" xml:space="preserve" style="enable-background:new 0 0 109.33 109.11" viewBox="0 0 109.33 109.11">
  <path d="M54.72 10.81c24.12 0 43.74 19.62 43.74 43.74S78.84 98.29 54.72 98.29 10.99 78.67 10.99 54.55s19.62-43.74 43.73-43.74m0-9.9C25.1.91 1.09 24.92 1.09 54.55s24.02 53.64 53.64 53.64c29.63 0 53.64-24.02 53.64-53.64S84.35.91 54.72.91z"></path>
  <path d="M54.72 20.7c18.66 0 33.84 15.18 33.84 33.85 0 18.66-15.18 33.84-33.84 33.84-18.66 0-33.84-15.18-33.84-33.84.01-18.67 15.19-33.85 33.84-33.85m0-5.66c-21.82 0-39.49 17.69-39.49 39.5s17.68 39.5 39.49 39.5 39.5-17.68 39.5-39.5c0-21.81-17.68-39.5-39.5-39.5z"></path>
  <path d="M54.72 31.05c12.95 0 23.49 10.54 23.49 23.5s-10.54 23.5-23.49 23.5-23.49-10.55-23.49-23.5 10.54-23.5 23.49-23.5m0-5.66c-16.1 0-29.15 13.06-29.15 29.15 0 16.1 13.05 29.15 29.15 29.15 16.1 0 29.15-13.05 29.15-29.15 0-16.09-13.05-29.15-29.15-29.15z"></path>
  <path d="M72.54 54.55c0 9.84-7.98 17.8-17.81 17.8-9.83 0-17.8-7.96-17.8-17.8 0-9.83 7.98-17.81 17.8-17.81 9.83 0 17.81 7.97 17.81 17.81z" style="fill:#c06536"></path>
</svg>
