<?xml version="1.0" encoding="UTF-8"?>
<svg xmlns="http://www.w3.org/2000/svg" xml:space="preserve" style="enable-background:new 0 0 110 109.66" viewBox="0 0 110 109.66">
  <path d="M55 12.93c23 0 41.71 18.72 41.71 41.72S78 96.37 55 96.37 13.28 77.65 13.28 54.65c0-23.01 18.71-41.72 41.72-41.72m0-11.92c-29.63 0-53.64 24.02-53.64 53.64S25.37 108.29 55 108.29c29.62 0 53.63-24.02 53.63-53.64S84.61 1.01 55 1.01z"></path>
  <path d="M87.17 54.65c0 17.77-14.41 32.18-32.18 32.18-17.78 0-32.18-14.4-32.18-32.18 0-17.77 14.4-32.18 32.18-32.18 17.77-.01 32.18 14.4 32.18 32.18z" style="fill:#c06536"></path>
</svg>
