<svg xmlns="http://www.w3.org/2000/svg" xml:space="preserve" id="Layer_1" x="0" y="0" style="enable-background:new 0 0 106.22 31.19" version="1.1" viewBox="0 0 106.22 31.19"><style>.st0{fill:#c06536}</style><path d="M15.71 3.74c6.51 0 11.8 5.29 11.8 11.8 0 6.51-5.29 11.8-11.8 11.8-6.51 0-11.8-5.29-11.8-11.8 0-6.51 5.29-11.8 11.8-11.8m0-3.37C7.33.37.54 7.16.54 15.54s6.79 15.17 15.17 15.17c8.38 0 15.17-6.79 15.17-15.17S24.09.37 15.71.37zM53.09 3.17c6.82 0 12.37 5.55 12.37 12.37 0 6.82-5.55 12.37-12.37 12.37s-12.37-5.55-12.37-12.37c0-6.82 5.55-12.37 12.37-12.37m0-2.8c-8.38 0-15.17 6.79-15.17 15.17s6.79 15.17 15.17 15.17c8.38 0 15.17-6.79 15.17-15.17S61.47.37 53.09.37zM90.47 3.74c6.51 0 11.8 5.29 11.8 11.8 0 6.51-5.29 11.8-11.8 11.8-6.51 0-11.8-5.29-11.8-11.8 0-6.51 5.29-11.8 11.8-11.8m0-3.37C82.09.37 75.3 7.16 75.3 15.54s6.79 15.17 15.17 15.17c8.38 0 15.17-6.79 15.17-15.17S98.85.37 90.47.37z"/><path d="M53.09 5.96c5.28 0 9.57 4.29 9.57 9.57s-4.29 9.57-9.57 9.57-9.57-4.29-9.57-9.57c0-5.27 4.29-9.57 9.57-9.57m0-1.6c-6.17 0-11.17 5-11.17 11.17s5 11.17 11.17 11.17 11.17-5 11.17-11.17c0-6.16-5-11.17-11.17-11.17z"/><path d="M53.09 8.89c3.66 0 6.65 2.98 6.65 6.65s-2.98 6.65-6.65 6.65-6.65-2.98-6.65-6.65 2.99-6.65 6.65-6.65m0-1.6c-4.55 0-8.25 3.69-8.25 8.25 0 4.55 3.69 8.25 8.25 8.25 4.55 0 8.25-3.69 8.25-8.25-.01-4.55-3.7-8.25-8.25-8.25z"/><path d="M99.57 15.54c0 5.03-4.08 9.1-9.1 9.1-5.03 0-9.1-4.07-9.1-9.1 0-5.03 4.07-9.1 9.1-9.1 5.03-.01 9.1 4.07 9.1 9.1zM58.13 15.54c0 2.78-2.26 5.04-5.04 5.04-2.78 0-5.04-2.25-5.04-5.04 0-2.78 2.26-5.04 5.04-5.04 2.78 0 5.04 2.26 5.04 5.04zM18.55 13.9c.9 1.57.37 3.57-1.2 4.48-1.57.9-3.57.37-4.48-1.2-.9-1.56-.37-3.57 1.2-4.47 1.57-.91 3.57-.38 4.48 1.19zM14.73 7.28c.91 1.57.37 3.57-1.2 4.47-1.57.91-3.57.37-4.48-1.2-.9-1.57-.37-3.57 1.2-4.48 1.57-.89 3.57-.35 4.48 1.21zM8.07 12.26c1.81 0 3.28 1.47 3.28 3.28 0 1.81-1.47 3.27-3.28 3.28-1.81 0-3.28-1.47-3.28-3.28 0-1.81 1.47-3.28 3.28-3.28zM9.05 20.52c.9-1.57 2.91-2.11 4.48-1.2 1.57.9 2.1 2.91 1.2 4.47-.9 1.57-2.91 2.11-4.48 1.2-1.57-.9-2.1-2.91-1.2-4.47zM16.69 23.79c-.9-1.57-.37-3.57 1.2-4.48 1.57-.91 3.57-.37 4.48 1.2.9 1.57.37 3.57-1.2 4.48-1.57.91-3.57.37-4.48-1.2zM23.35 18.82c-1.81 0-3.28-1.47-3.28-3.28 0-1.81 1.47-3.28 3.28-3.28 1.81 0 3.28 1.47 3.28 3.28 0 1.81-1.47 3.28-3.28 3.28zM22.37 10.56c-.9 1.57-2.91 2.1-4.48 1.2-1.57-.9-2.1-2.91-1.2-4.48.9-1.57 2.91-2.1 4.48-1.2 1.56.91 2.1 2.91 1.2 4.48z" class="st0"/></svg>